<?xml version="1.0" encoding="UTF-8" standalone="no"?>
<!-- Created with Inkscape (http://www.inkscape.org/) -->

<svg
   xmlns:dc="http://purl.org/dc/elements/1.1/"
   xmlns:cc="http://creativecommons.org/ns#"
   xmlns:rdf="http://www.w3.org/1999/02/22-rdf-syntax-ns#"
   xmlns:svg="http://www.w3.org/2000/svg"
   xmlns="http://www.w3.org/2000/svg"
   xmlns:xlink="http://www.w3.org/1999/xlink"
   xmlns:sodipodi="http://sodipodi.sourceforge.net/DTD/sodipodi-0.dtd"
   xmlns:inkscape="http://www.inkscape.org/namespaces/inkscape"
   width="1664.1877mm"
   height="1134.8307mm"
   viewBox="0 0 5896.7281 4021.0538"
   id="svg4264"
   version="1.1"
   inkscape:version="0.91 r13725"
   sodipodi:docname="Qommunist.svg"
   inkscape:export-filename="/Users/jonathanloov/Dropbox/Teammajim/Haskell/Qommunist/Qommunist_.png"
   inkscape:export-xdpi="30.530001"
   inkscape:export-ydpi="30.530001">
  <defs
     id="defs4266">
    <linearGradient
       id="linearGradient4326"
       inkscape:collect="always">
      <stop
         id="stop4328"
         offset="0"
         style="stop-color:#cccc6c;stop-opacity:1" />
      <stop
         id="stop4330"
         offset="1"
         style="stop-color:#ffff00;stop-opacity:1" />
    </linearGradient>
    <linearGradient
       inkscape:collect="always"
       id="linearGradient4850">
      <stop
         style="stop-color:#ff0000;stop-opacity:1;"
         offset="0"
         id="stop4852" />
      <stop
         style="stop-color:#a70000;stop-opacity:1"
         offset="1"
         id="stop4854" />
    </linearGradient>
    <inkscape:perspective
       sodipodi:type="inkscape:persp3d"
       inkscape:vp_x="0 : 7086.6144 : 1"
       inkscape:vp_y="0 : 999.99999 : 0"
       inkscape:vp_z="10629.921 : 7086.6144 : 1"
       inkscape:persp3d-origin="5314.9606 : 4724.4096 : 1"
       id="perspective4274" />
    <linearGradient
       inkscape:collect="always"
       xlink:href="#linearGradient4850"
       id="linearGradient4856"
       x1="1685.0863"
       y1="-1595.6486"
       x2="1685.0863"
       y2="2425.4053"
       gradientUnits="userSpaceOnUse" />
    <linearGradient
       inkscape:collect="always"
       xlink:href="#linearGradient4326"
       id="linearGradient4913"
       x1="1594.4609"
       y1="1312.436"
       x2="1594.4609"
       y2="1450.8885"
       gradientUnits="userSpaceOnUse" />
    <linearGradient
       inkscape:collect="always"
       xlink:href="#linearGradient4326"
       id="linearGradient4627"
       x1="300.90475"
       y1="17.604107"
       x2="300.90475"
       y2="834.30304"
       gradientUnits="userSpaceOnUse" />
    <linearGradient
       inkscape:collect="always"
       xlink:href="#linearGradient4326"
       id="linearGradient4634"
       gradientUnits="userSpaceOnUse"
       x1="300.90475"
       y1="17.604107"
       x2="300.90475"
       y2="834.30304" />
    <linearGradient
       inkscape:collect="always"
       xlink:href="#linearGradient4326"
       id="linearGradient4645"
       gradientUnits="userSpaceOnUse"
       x1="300.90475"
       y1="17.604107"
       x2="300.90475"
       y2="834.30304"
       gradientTransform="translate(2647.4589,3117.7328)" />
  </defs>
  <sodipodi:namedview
     id="base"
     pagecolor="#ffffff"
     bordercolor="#666666"
     borderopacity="1.0"
     inkscape:pageopacity="0.0"
     inkscape:pageshadow="2"
     inkscape:zoom="0.65057574"
     inkscape:cx="2896.0476"
     inkscape:cy="460.4555"
     inkscape:document-units="px"
     inkscape:current-layer="layer1"
     showgrid="false"
     units="mm"
     showborder="true"
     inkscape:object-nodes="true"
     inkscape:snap-midpoints="true"
     showguides="true"
     inkscape:guide-bbox="true"
     inkscape:snap-intersection-paths="true"
     fit-margin-top="0"
     fit-margin-left="0"
     fit-margin-right="0"
     fit-margin-bottom="0"
     inkscape:window-width="1436"
     inkscape:window-height="856"
     inkscape:window-x="4"
     inkscape:window-y="0"
     inkscape:window-maximized="1"
     inkscape:snap-nodes="true"
     inkscape:object-paths="true"
     inkscape:snap-smooth-nodes="true"
     inkscape:snap-center="true" />
  <metadata
     id="metadata4269">
    <rdf:RDF>
      <cc:Work
         rdf:about="">
        <dc:format>image/svg+xml</dc:format>
        <dc:type
           rdf:resource="http://purl.org/dc/dcmitype/StillImage" />
        <dc:title />
      </cc:Work>
    </rdf:RDF>
  </metadata>
  <g
     inkscape:label="Layer 1"
     inkscape:groupmode="layer"
     id="layer1"
     transform="translate(1263.2776,1595.6486)">
    <rect
       style="fill:url(#linearGradient4856);fill-opacity:1;stroke:none;stroke-width:5;stroke-linecap:square;stroke-linejoin:miter;stroke-miterlimit:4;stroke-dasharray:none;stroke-dashoffset:0;stroke-opacity:1"
       id="rect4810"
       width="5896.728"
       height="4021.0537"
       x="-1263.2776"
       y="-1595.6486" />
    <g
       id="g4804"
       transform="matrix(7.5903643,0,0,7.5903643,212.41806,-1719.9268)">
      <path
         id="path4794"
         d="m 166.577,138.645 -33.986,32.37 18.126,18.126 15.651,-15.756 c 30.522,30.98 54.246,55.066 83.72,84.978 8.159,8.46 22.368,-3.044 13.268,-12.812 -31.14,-30.347 -52.722,-52.25 -85.165,-84.067 l 19.235,-19.348 z"
         inkscape:connector-curvature="0"
         style="fill:#ffd700;fill-opacity:1;fill-rule:evenodd;stroke:none" />
      <path
         id="path4796"
         d="m 165.43,229.454 c 60.803,56.406 159.333,-45.304 33.413,-119.013 93.707,104.11 3.745,136.026 -28.829,103.909 l -1.64,-1.355 c -1.33,1.493 -2.663,2.984 -3.991,4.478 -2.524,-2.382 -6.444,-3.082 -7.65,0.991 -4.96,-0.343 -7.87,2.405 -9.167,7.553 -9.224,6.11 -19.21,11.472 -24.949,21.068 -3.28,10.15 3.208,14.564 10.547,13.724 12.031,-4.998 15.75,-15.801 22.188,-24.714 4.552,-1.449 8.407,-3.397 9.114,-7.54"
         inkscape:connector-curvature="0"
         style="fill:#ffd700;fill-opacity:1;fill-rule:evenodd;stroke:none" />
    </g>
    <g
       id="g4613"
       style="fill:#ffffff;stroke:#000000"
       transform="matrix(1.0801443,0,0,1.0801443,-135.05004,85.94499)">
      <path
         style="fill:#ffffff;fill-rule:evenodd;stroke:#000000;stroke-width:10;stroke-linecap:square;stroke-linejoin:miter;stroke-miterlimit:4;stroke-dasharray:none;stroke-opacity:1"
         d="m 72.599609,501.73633 c 92.104171,0 184.208331,0 276.312501,0 1.30283,-7.63616 -10.15028,-2.51639 -15,-4 -87.10417,0 -174.20833,0 -261.312501,0 0,1.33333 0,2.66666 0,4 z"
         id="path4312"
         inkscape:connector-curvature="0" />
      <path
         style="fill:#ffffff;fill-rule:evenodd;stroke:#000000;stroke-width:10;stroke-linecap:square;stroke-linejoin:miter;stroke-miterlimit:4;stroke-dasharray:none;stroke-opacity:1"
         d="m 70.599609,776.04883 c 7.63616,1.30282 2.516388,-10.15028 4,-15 0,-87.10417 0,-174.20834 0,-261.3125 -7.636159,-1.30283 -2.516387,10.15028 -4,15 0,87.10416 0,174.20833 0,261.3125 z"
         id="path4302"
         inkscape:connector-curvature="0" />
      <path
         style="fill:#ffffff;fill-rule:evenodd;stroke:#000000;stroke-width:10;stroke-linecap:square;stroke-linejoin:miter;stroke-miterlimit:4;stroke-dasharray:none;stroke-opacity:1"
         d="m 72.599609,778.04883 c 92.104171,0 184.208331,0 276.312501,0 1.30283,-7.63616 -10.15028,-2.51639 -15,-4 -87.10417,0 -174.20833,0 -261.312501,0 0,1.33333 0,2.66666 0,4 z"
         id="path4314"
         inkscape:connector-curvature="0" />
      <path
         style="fill:#ffffff;fill-rule:evenodd;stroke:#000000;stroke-width:10;stroke-linecap:square;stroke-linejoin:miter;stroke-miterlimit:4;stroke-dasharray:none;stroke-opacity:1"
         d="m 346.91211,914.20508 c 7.63616,1.30282 2.51639,-10.15028 4,-15 0,-41.05209 0,-82.10417 0,-123.15625 -7.63616,-1.30283 -2.51639,10.15028 -4,15 0,41.05208 0,82.10416 0,123.15625 z"
         id="path4318"
         inkscape:connector-curvature="0" />
      <path
         style="fill:#ffffff;fill-rule:evenodd;stroke:#000000;stroke-width:10;stroke-linecap:square;stroke-linejoin:miter;stroke-miterlimit:4;stroke-dasharray:none;stroke-opacity:1"
         d="m 346.91211,776.04883 c 7.63616,1.30282 2.51639,-10.15028 4,-15 0,-87.10417 0,-174.20834 0,-261.3125 -7.63616,-1.30283 -2.51639,10.15028 -4,15 0,87.10416 0,174.20833 0,261.3125 z"
         id="path4322"
         inkscape:connector-curvature="0" />
      <path
         style="fill:#ffffff;fill-rule:evenodd;stroke:#000000;stroke-width:10;stroke-linecap:square;stroke-linejoin:miter;stroke-miterlimit:4;stroke-dasharray:none;stroke-opacity:1"
         d="m 408.91211,501.73633 c 92.10482,0 184.20963,0 276.31445,0 1.30283,-7.63616 -10.15028,-2.51639 -15,-4 -87.10482,0 -174.20963,0 -261.31445,0 0,1.33333 0,2.66666 0,4 z"
         id="path4324"
         inkscape:connector-curvature="0" />
      <path
         style="fill:#ffffff;fill-rule:evenodd;stroke:#000000;stroke-width:10;stroke-linecap:square;stroke-linejoin:miter;stroke-miterlimit:4;stroke-dasharray:none;stroke-opacity:1"
         d="m 406.91211,776.04883 c 7.63616,1.30282 2.51639,-10.15028 4,-15 0,-87.10417 0,-174.20834 0,-261.3125 -7.63616,-1.30283 -2.51639,10.15028 -4,15 0,87.10416 0,174.20833 0,261.3125 z"
         id="path4326"
         inkscape:connector-curvature="0" />
      <path
         style="fill:#ffffff;fill-rule:evenodd;stroke:#000000;stroke-width:10;stroke-linecap:square;stroke-linejoin:miter;stroke-miterlimit:4;stroke-dasharray:none;stroke-opacity:1"
         d="m 408.91211,778.04883 c 92.10482,0 184.20963,0 276.31445,0 1.30283,-7.63616 -10.15028,-2.51639 -15,-4 -87.10482,0 -174.20963,0 -261.31445,0 0,1.33333 0,2.66666 0,4 z"
         id="path4328"
         inkscape:connector-curvature="0" />
      <path
         style="fill:#ffffff;fill-rule:evenodd;stroke:#000000;stroke-width:10;stroke-linecap:square;stroke-linejoin:miter;stroke-miterlimit:4;stroke-dasharray:none;stroke-opacity:1"
         d="m 683.22656,776.04883 c 7.63616,1.30282 2.51639,-10.15028 4,-15 0,-87.10417 0,-174.20834 0,-261.3125 -7.63616,-1.30283 -2.51639,10.15028 -4,15 0,87.10416 0,174.20833 0,261.3125 z"
         id="path4330"
         inkscape:connector-curvature="0" />
      <path
         style="fill:#ffffff;fill-rule:evenodd;stroke:#000000;stroke-width:10;stroke-linecap:square;stroke-linejoin:miter;stroke-miterlimit:4;stroke-dasharray:none;stroke-opacity:1"
         d="m 745.22656,501.73633 c 92.10417,0 184.20834,0 276.31254,0 1.3028,-7.63616 -10.1503,-2.51639 -15,-4 -87.1042,0 -174.20837,0 -261.31254,0 0,1.33333 0,2.66666 0,4 z"
         id="path4332"
         inkscape:connector-curvature="0" />
      <path
         style="fill:#ffffff;fill-rule:evenodd;stroke:#000000;stroke-width:10;stroke-linecap:square;stroke-linejoin:miter;stroke-miterlimit:4;stroke-dasharray:none;stroke-opacity:1"
         d="m 743.22656,776.04883 c 7.63616,1.30282 2.51639,-10.15028 4,-15 0,-87.10417 0,-174.20834 0,-261.3125 -7.63616,-1.30283 -2.51639,10.15028 -4,15 0,87.10416 0,174.20833 0,261.3125 z"
         id="path4334"
         inkscape:connector-curvature="0" />
      <path
         style="fill:#ffffff;fill-rule:evenodd;stroke:#000000;stroke-width:10;stroke-linecap:square;stroke-linejoin:miter;stroke-miterlimit:4;stroke-dasharray:none;stroke-opacity:1"
         d="m 1019.5391,776.04883 c 7.6361,1.30282 2.5164,-10.15028 4,-15 0,-87.10417 0,-174.20834 0,-261.3125 -7.6362,-1.30283 -2.5164,10.15028 -4,15 0,87.10416 0,174.20833 0,261.3125 z"
         id="path4338"
         inkscape:connector-curvature="0" />
      <path
         style="fill:#ffffff;fill-rule:evenodd;stroke:#000000;stroke-width:10;stroke-linecap:square;stroke-linejoin:miter;stroke-miterlimit:4;stroke-dasharray:none;stroke-opacity:1"
         d="m 1021.5391,501.73633 c 92.1041,0 184.2083,0 276.3125,0 1.3028,-7.63616 -10.1503,-2.51639 -15,-4 -87.1042,0 -174.2084,0 -261.3125,0 0,1.33333 0,2.66666 0,4 z"
         id="path4340"
         inkscape:connector-curvature="0" />
      <path
         style="fill:#ffffff;fill-rule:evenodd;stroke:#000000;stroke-width:10;stroke-linecap:square;stroke-linejoin:miter;stroke-miterlimit:4;stroke-dasharray:none;stroke-opacity:1"
         d="m 1295.8516,776.04883 c 7.6361,1.30282 2.5164,-10.15028 4,-15 0,-87.10417 0,-174.20834 0,-261.3125 -7.6362,-1.30283 -2.5164,10.15028 -4,15 0,87.10416 0,174.20833 0,261.3125 z"
         id="path4342"
         inkscape:connector-curvature="0" />
      <path
         style="fill:#ffffff;fill-rule:evenodd;stroke:#000000;stroke-width:10;stroke-linecap:square;stroke-linejoin:miter;stroke-miterlimit:4;stroke-dasharray:none;stroke-opacity:1"
         d="m 1357.8516,501.73633 c 92.1041,0 184.2083,0 276.3125,0 1.3028,-7.63616 -10.1503,-2.51639 -15,-4 -87.1042,0 -174.2084,0 -261.3125,0 0,1.33333 0,2.66666 0,4 z"
         id="path4384"
         inkscape:connector-curvature="0" />
      <path
         style="fill:#ffffff;fill-rule:evenodd;stroke:#000000;stroke-width:10;stroke-linecap:square;stroke-linejoin:miter;stroke-miterlimit:4;stroke-dasharray:none;stroke-opacity:1"
         d="m 1355.8516,776.04883 c 7.6361,1.30282 2.5164,-10.15028 4,-15 0,-87.10417 0,-174.20834 0,-261.3125 -7.6362,-1.30283 -2.5164,10.15028 -4,15 0,87.10416 0,174.20833 0,261.3125 z"
         id="path4386"
         inkscape:connector-curvature="0" />
      <path
         style="fill:#ffffff;fill-rule:evenodd;stroke:#000000;stroke-width:10;stroke-linecap:square;stroke-linejoin:miter;stroke-miterlimit:4;stroke-dasharray:none;stroke-opacity:1"
         d="m 1632.1641,776.04883 c 7.6361,1.30282 2.5164,-10.15028 4,-15 0,-87.10417 0,-174.20834 0,-261.3125 -7.6362,-1.30283 -2.5164,10.15028 -4,15 0,87.10416 0,174.20833 0,261.3125 z"
         id="path4388"
         inkscape:connector-curvature="0" />
      <path
         style="fill:#ffffff;fill-rule:evenodd;stroke:#000000;stroke-width:10;stroke-linecap:square;stroke-linejoin:miter;stroke-miterlimit:4;stroke-dasharray:none;stroke-opacity:1"
         d="m 1634.1641,501.73633 c 92.1048,0 184.2096,0 276.3144,0 1.3028,-7.63616 -10.1503,-2.51639 -15,-4 -87.1048,0 -174.2096,0 -261.3144,0 0,1.33333 0,2.66666 0,4 z"
         id="path4390"
         inkscape:connector-curvature="0" />
      <path
         style="fill:#ffffff;fill-rule:evenodd;stroke:#000000;stroke-width:10;stroke-linecap:square;stroke-linejoin:miter;stroke-miterlimit:4;stroke-dasharray:none;stroke-opacity:1"
         d="m 1908.4785,776.04883 c 7.6362,1.30282 2.5164,-10.15028 4,-15 0,-87.10417 0,-174.20834 0,-261.3125 -7.6361,-1.30283 -2.5164,10.15028 -4,15 0,87.10416 0,174.20833 0,261.3125 z"
         id="path4392"
         inkscape:connector-curvature="0" />
      <path
         style="fill:#ffffff;fill-rule:evenodd;stroke:#000000;stroke-width:10;stroke-linecap:square;stroke-linejoin:miter;stroke-miterlimit:4;stroke-dasharray:none;stroke-opacity:1"
         d="m 1968.4785,776.04883 c 7.6362,1.30282 2.5164,-10.15028 4,-15 0,-87.10417 0,-174.20834 0,-261.3125 -7.6361,-1.30283 -2.5164,10.15028 -4,15 0,87.10416 0,174.20833 0,261.3125 z"
         id="path4398"
         inkscape:connector-curvature="0" />
      <path
         style="fill:#ffffff;fill-rule:evenodd;stroke:#000000;stroke-width:10;stroke-linecap:square;stroke-linejoin:miter;stroke-miterlimit:4;stroke-dasharray:none;stroke-opacity:1"
         d="m 1970.4785,778.04883 c 92.1042,0 184.2083,0 276.3125,0 1.3028,-7.63616 -10.1503,-2.51639 -15,-4 -87.1042,0 -174.2083,0 -261.3125,0 0,1.33333 0,2.66666 0,4 z"
         id="path4400"
         inkscape:connector-curvature="0" />
      <path
         style="fill:#ffffff;fill-rule:evenodd;stroke:#000000;stroke-width:10;stroke-linecap:square;stroke-linejoin:miter;stroke-miterlimit:4;stroke-dasharray:none;stroke-opacity:1"
         d="m 2244.791,776.04883 c 7.6362,1.30282 2.5164,-10.15028 4,-15 0,-87.10417 0,-174.20834 0,-261.3125 -7.6361,-1.30283 -2.5164,10.15028 -4,15 0,87.10416 0,174.20833 0,261.3125 z"
         id="path4402"
         inkscape:connector-curvature="0" />
      <path
         style="fill:#ffffff;fill-rule:evenodd;stroke:#000000;stroke-width:10;stroke-linecap:square;stroke-linejoin:miter;stroke-miterlimit:4;stroke-dasharray:none;stroke-opacity:1"
         d="m 2306.791,501.73633 c 92.1042,0 184.2083,0 276.3125,0 1.3028,-7.63616 -10.1503,-2.51639 -15,-4 -87.1042,0 -174.2083,0 -261.3125,0 0,1.33333 0,2.66666 0,4 z"
         id="path4406"
         inkscape:connector-curvature="0" />
      <path
         style="fill:#ffffff;fill-rule:evenodd;stroke:#000000;stroke-width:10;stroke-linecap:square;stroke-linejoin:miter;stroke-miterlimit:4;stroke-dasharray:none;stroke-opacity:1"
         d="m 2304.791,776.04883 c 7.6362,1.30282 2.5164,-10.15028 4,-15 0,-87.10417 0,-174.20834 0,-261.3125 -7.6361,-1.30283 -2.5164,10.15028 -4,15 0,87.10416 0,174.20833 0,261.3125 z"
         id="path4408"
         inkscape:connector-curvature="0" />
      <path
         style="fill:#ffffff;fill-rule:evenodd;stroke:#000000;stroke-width:10;stroke-linecap:square;stroke-linejoin:miter;stroke-miterlimit:4;stroke-dasharray:none;stroke-opacity:1"
         d="m 2581.1035,776.04883 c 7.6362,1.30282 2.5164,-10.15028 4,-15 0,-87.10417 0,-174.20834 0,-261.3125 -7.6361,-1.30283 -2.5164,10.15028 -4,15 0,87.10416 0,174.20833 0,261.3125 z"
         id="path4410"
         inkscape:connector-curvature="0" />
      <path
         style="fill:#ffffff;fill-rule:evenodd;stroke:#000000;stroke-width:10;stroke-linecap:square;stroke-linejoin:miter;stroke-miterlimit:4;stroke-dasharray:none;stroke-opacity:1"
         d="m 2641.1035,776.04883 c 7.6362,1.30282 2.5164,-10.15028 4,-15 0,-87.10417 0,-174.20834 0,-261.3125 -7.6361,-1.30283 -2.5164,10.15028 -4,15 0,87.10416 0,174.20833 0,261.3125 z"
         id="path4420"
         inkscape:connector-curvature="0" />
      <path
         style="fill:#ffffff;fill-opacity:1;stroke:#000000;stroke-width:10;stroke-linecap:square;stroke-linejoin:miter;stroke-miterlimit:4;stroke-dasharray:none;stroke-dashoffset:0;stroke-opacity:1"
         d="m 2638.6035,434.73633 c -4.3341,7.75069 9.0128,10.13482 9,4 3.6767,-7.31378 -8.1275,-8.04464 -9,-4 z"
         id="rect4424"
         inkscape:connector-curvature="0" />
      <path
         style="fill:#ffffff;fill-rule:evenodd;stroke:#000000;stroke-width:10;stroke-linecap:square;stroke-linejoin:miter;stroke-miterlimit:4;stroke-dasharray:none;stroke-opacity:1"
         d="m 2703.1035,501.73633 c 92.1042,0 184.2083,0 276.3125,0 1.3028,-7.63616 -10.1503,-2.51639 -15,-4 -87.1042,0 -174.2083,0 -261.3125,0 0,1.33333 0,2.66666 0,4 z"
         id="path4428"
         inkscape:connector-curvature="0" />
      <path
         style="fill:#ffffff;fill-rule:evenodd;stroke:#000000;stroke-width:10;stroke-linecap:square;stroke-linejoin:miter;stroke-miterlimit:4;stroke-dasharray:none;stroke-opacity:1"
         d="m 2703.1035,778.04883 c 92.1042,0 184.2083,0 276.3125,0 1.3028,-7.63616 -10.1503,-2.51639 -15,-4 -87.1042,0 -174.2083,0 -261.3125,0 0,1.33333 0,2.66666 0,4 z"
         id="path4432"
         inkscape:connector-curvature="0" />
      <path
         style="fill:#ffffff;fill-rule:evenodd;stroke:#000000;stroke-width:10;stroke-linecap:square;stroke-linejoin:miter;stroke-miterlimit:4;stroke-dasharray:none;stroke-opacity:1"
         d="m 2701.1035,637.89258 c 7.6362,1.30282 2.5164,-10.15028 4,-15 0,-41.05209 0,-82.10417 0,-123.15625 -7.6361,-1.30283 -2.5164,10.15028 -4,15 0,41.05208 0,82.10416 0,123.15625 z"
         id="path4438"
         inkscape:connector-curvature="0" />
      <path
         style="fill:#ffffff;fill-rule:evenodd;stroke:#000000;stroke-width:10;stroke-linecap:square;stroke-linejoin:miter;stroke-miterlimit:4;stroke-dasharray:none;stroke-opacity:1"
         d="m 2977.416,776.04883 c 7.6362,1.30282 2.5164,-10.15028 4,-15 0,-41.05209 0,-82.10417 0,-123.15625 -7.6361,-1.30283 -2.5164,10.15028 -4,15 0,41.05208 0,82.10416 0,123.15625 z"
         id="path4440"
         inkscape:connector-curvature="0" />
      <path
         style="fill:#ffffff;fill-rule:evenodd;stroke:#000000;stroke-width:10;stroke-linecap:square;stroke-linejoin:miter;stroke-miterlimit:4;stroke-dasharray:none;stroke-opacity:1"
         d="m 2703.1035,639.89258 c 92.1042,0 184.2083,0 276.3125,0 1.3028,-7.63616 -10.1503,-2.51639 -15,-4 -87.1042,0 -174.2083,0 -261.3125,0 0,1.33333 0,2.66666 0,4 z"
         id="path4442"
         inkscape:connector-curvature="0" />
      <path
         style="fill:#ffffff;fill-rule:evenodd;stroke:#000000;stroke-width:10;stroke-linecap:square;stroke-linejoin:miter;stroke-miterlimit:4;stroke-dasharray:none;stroke-opacity:1"
         d="m 3157.416,776.04883 c 7.6362,1.30282 2.5164,-10.15028 4,-15 0,-87.10417 0,-174.20834 0,-261.3125 -7.6361,-1.30283 -2.5164,10.15028 -4,15 0,87.10416 0,174.20833 0,261.3125 z"
         id="path4464"
         inkscape:connector-curvature="0" />
      <path
         style="fill:#ffffff;fill-rule:evenodd;stroke:#000000;stroke-width:10;stroke-linecap:square;stroke-linejoin:miter;stroke-miterlimit:4;stroke-dasharray:none;stroke-opacity:1"
         d="m 3021.2598,501.73633 c 92.1041,0 184.2083,0 276.3125,0 1.3028,-7.63616 -10.1503,-2.51639 -15,-4 -87.1042,0 -174.2084,0 -261.3125,0 0,1.33333 0,2.66666 0,4 z"
         id="path4510"
         inkscape:connector-curvature="0" />
    </g>
    <path
       style="color:#000000;font-style:normal;font-variant:normal;font-weight:300;font-stretch:normal;font-size:253.78509521px;line-height:50%;font-family:'Avenir Next';-inkscape-font-specification:'Avenir Next, Light';text-indent:0;text-align:start;text-decoration:none;text-decoration-line:none;text-decoration-style:solid;text-decoration-color:#000000;letter-spacing:0px;word-spacing:0px;text-transform:none;direction:ltr;block-progression:tb;writing-mode:lr-tb;baseline-shift:baseline;text-anchor:start;white-space:normal;clip-rule:nonzero;display:inline;overflow:visible;visibility:visible;opacity:1;isolation:auto;mix-blend-mode:normal;color-interpolation:sRGB;color-interpolation-filters:linearRGB;solid-color:#000000;solid-opacity:1;fill:url(#linearGradient4913);fill-opacity:1;fill-rule:nonzero;stroke:none;stroke-width:5;stroke-linecap:butt;stroke-linejoin:miter;stroke-miterlimit:4;stroke-dasharray:none;stroke-dashoffset:0;stroke-opacity:1;color-rendering:auto;image-rendering:auto;shape-rendering:auto;text-rendering:auto;enable-background:accumulate"
       d="m 916.18359,1259.1328 c -35.58961,-0.6847 -71.38902,19.4647 -86.70312,52.0664 -12.78761,26.2973 -13.55727,58.2251 -2.62305,85.2891 11.69146,28.2928 38.44395,49.1659 68.47064,54.5053 21.9012,3.7738 44.27571,1.0987 66.37116,1.9048 20.3431,0 40.68618,0 61.02928,0 -1.3786,-4.6468 3.4685,-15.5192 -4,-14.0761 -17.0384,0 -34.07681,0 -51.11522,0 33.94542,-20.1003 51.38022,-62.5911 43.83402,-100.961 -5.4583,-32.1003 -28.19099,-60.8339 -58.92777,-72.1718 -11.62197,-4.5987 -24.83794,-6.6829 -36.33594,-6.5567 z m -178.48632,0 c -22.75918,-0.264 -47.72767,10.8531 -56.5361,33.0603 -6.40495,17.6973 -3.99343,39.9578 10.31742,53.2445 20.04553,18.694 50.08972,18.4217 71.99993,33.7401 9.86613,6.7328 15.33503,18.8245 13.41015,30.6875 -5.45087,40.4155 -63.76069,43.1477 -87.44945,17.4244 -3.38231,-3.6795 -6.43186,-8.2091 -10.18072,-2.0552 -4.04458,3.1196 -8.88859,6.2283 -2.81377,9.9118 22.55316,24.2452 62.19969,29.8197 90.93027,13.8733 24.08733,-13.6578 32.4221,-49.2419 15.5293,-71.5429 -13.37006,-16.9465 -35.8308,-21.6315 -54.96875,-28.8731 -14.84314,-4.7419 -31.88824,-13.4041 -34.8125,-30.3476 -2.9371,-13.8525 2.57363,-29.2773 14.93945,-36.7247 21.99775,-14.5031 55.77894,-10.009 70.96484,12.459 2.62413,-4.0584 13.09332,-7.4769 9.25228,-12.0636 -11.81763,-15.2177 -31.78378,-22.732 -50.58235,-22.7938 z m 1632.30473,0.014 c -22.4252,0.145 -46.7556,11.4573 -55.2364,33.3808 -6.2516,17.7026 -3.7515,39.8592 10.5899,53.0508 20.4878,19.0025 51.3764,18.1982 73.3613,34.7754 9.764,7.2017 13.9558,19.8917 11.623,31.6348 -2.4012,18.2045 -20.2788,30.2015 -37.4765,31.5371 -20.7016,2.4069 -42.3515,-5.8012 -55.4199,-22.2285 -2.3337,3.7898 -12.1035,7.1544 -9.6641,11.2207 22.099,26.3602 63.4871,33.0653 93.3203,16.5019 24.0796,-13.66 32.415,-49.2313 15.5293,-71.5332 -13.1074,-16.6494 -35.0244,-21.4368 -53.8915,-28.4968 -14.6062,-4.7539 -31.3547,-12.4306 -35.4737,-28.7786 -3.7556,-14.3206 1.5207,-30.881 14.5234,-38.6777 21.8756,-14.5123 55.883,-9.9737 70.9668,12.4609 2.6241,-4.0573 13.0838,-7.4737 9.2528,-12.062 -10.1673,-13.1713 -26.4631,-20.4311 -42.7001,-22.3618 -0.2018,0.8085 -4.0672,-0.9626 -7.8242,-0.4316 -0.4888,-0.072 -0.9887,0.032 -1.4804,0.01 z m 144.7363,0 c -22.4251,0.1441 -46.7542,11.459 -55.2363,33.3808 -6.2519,17.7026 -3.7516,39.8608 10.5918,53.0508 20.0537,18.5363 49.9161,18.3041 71.8496,33.5996 9.8661,6.7326 15.3352,18.8246 13.4101,30.6875 -1.2369,17.4517 -16.8774,30.4032 -33.4121,33.0176 -21.9115,4.11 -45.7775,-3.9987 -59.7598,-21.5859 -2.3341,3.7891 -12.1025,7.1553 -9.664,11.2207 22.3019,26.6107 64.377,33.2247 94.1708,15.9823 23.8454,-14.1791 31.5497,-50.1273 13.9073,-72.0116 -14.1,-16.7027 -36.7759,-21.107 -56.2266,-28.6231 -14.5356,-4.6725 -30.7328,-14.0135 -32.9531,-30.6289 -2.5613,-13.5888 3.0952,-28.4389 15.1113,-35.7051 22.171,-14.5505 55.8057,-9.938 70.9668,12.461 2.6242,-4.0585 13.0934,-7.477 9.2523,-12.0636 -10.169,-13.1705 -26.4634,-20.4318 -42.7015,-22.3602 -1.1886,2.1173 -1.6307,-1.386 -6.0722,-0.4102 -1.0807,-0.016 -2.154,-0.034 -3.2344,-0.012 z m 213.0937,5.0625 c -7.1324,-2.1816 -6.7712,7.0529 -9.6866,11.2971 -25.6392,59.1274 -51.2763,118.2558 -76.9169,177.3826 5.2226,-0.629 12.1303,1.2971 16.3059,-0.9192 7.2286,-16.8662 14.4575,-33.7323 21.6863,-50.5984 32.7773,0 65.5547,0 98.332,0 7.1064,17.1724 14.2106,34.3457 21.3184,51.5176 4.4463,-1.0019 15.1674,2.1791 15.0782,-1.8461 -25.9491,-62.2779 -51.9001,-124.5551 -77.8477,-186.8336 -6.6358,3.0279 -6.1076,-7.6943 -8.2696,0 z m -598.0898,0.4824 c -7.5907,4.081 2.4972,3.4861 -0.6992,11.5293 0.2706,37.9465 -0.5237,75.9209 0.3613,113.8516 1.1759,21.724 9.8565,44.5726 28.9395,56.6269 18.9981,12.4993 43.3763,13.0674 65.0966,9.1954 23.1953,-4.3513 42.632,-22.9637 48.003,-45.9473 6.177,-24.7926 2.724,-50.1878 3.6347,-75.5645 0,-23.3887 0,-46.7773 0,-70.166 -4.7596,1.4344 -15.943,-3.555 -14.582,4 -0.2265,39.7591 0.4412,79.6815 -0.3106,119.3477 -0.7767,18.1014 -7.315,38.077 -23.8769,47.8574 -15.7848,10.0823 -35.9678,9.8236 -53.7481,6.4316 -19.7555,-4.3216 -34.8557,-22.4281 -37.2951,-42.3937 -3.2955,-23.7216 -0.9482,-48.1125 -1.6541,-72.1004 0,-21.0462 0,-42.0925 0,-63.1387 -6.7636,1.8 -11.0745,-3.5636 -13.8691,0.4707 z m -1079.3867,-0.1465 c -10.0729,5.0627 1.7242,1.2479 -0.8907,9.6719 0.2703,38.6144 -0.5231,77.2568 0.3614,115.8555 1.1758,21.7241 9.8568,44.5724 28.9394,56.6269 18.9988,12.4999 43.3776,13.067 65.0986,9.1954 23.1943,-4.3528 42.6304,-22.9641 48.001,-45.9473 6.1776,-24.7925 2.7238,-50.1878 3.6348,-75.5645 0,-23.3887 0,-46.7773 0,-70.166 -4.7596,1.4344 -15.943,-3.555 -14.582,4 -0.2265,39.7591 0.4411,79.6815 -0.3106,119.3477 -0.7566,18.1543 -7.3377,38.0852 -23.8789,47.8554 -15.7844,10.081 -35.9666,9.8211 -53.7461,6.4297 -19.7598,-4.3216 -34.8521,-22.4363 -37.2924,-42.4033 -3.3216,-23.6922 -0.9335,-48.0833 -1.6548,-72.0908 0,-21.0463 0,-42.0925 0,-63.1387 -5.9282,1.2212 -10.5804,-2.2677 -13.6797,0.3281 z m 930.539,1.6641 c 0,62.2265 0,124.4531 0,186.6797 4.7601,-1.4346 15.9447,3.5553 14.584,-4 0,-28.8672 0,-57.7344 0,-86.6016 11.694,0 23.388,0 35.082,0 18.102,30.2007 36.2059,60.4002 54.3067,90.6016 5.6152,0 11.2305,0 16.8457,0 -18.291,-30.4604 -36.5849,-60.9192 -54.877,-91.3789 18.6829,-1.1732 38.0768,-10.9147 45.6153,-28.8809 5.5283,-14.8539 5.1031,-32.9042 -3.6387,-46.4609 -10.4163,-15.9627 -30.4544,-21.5213 -48.5273,-21.8418 -19.2341,-0.5651 -38.7488,0.5572 -57.8085,-0.5625 -3.007,-2.2183 -1.0357,0.9805 -1.5822,2.4453 z m -1447.36716,0 c 0,62.2265 0,124.4531 0,186.6797 39.20638,0 78.41276,0 117.61914,0 -1.37859,-4.6468 3.46845,-15.5193 -4,-14.0762 -33.09635,0 -66.1927,0 -99.28906,0 0,-25.5085 0,-51.0169 0,-76.5254 31.13086,0 62.26172,0 93.39258,0 -1.3786,-4.6468 3.46845,-15.5192 -4,-14.0762 -29.79753,0 -59.59505,0 -89.39258,0 0,-23.3086 0,-46.6171 0,-69.9257 33.07617,0 66.15235,0 99.22852,0 -1.3786,-4.6468 3.46844,-15.5193 -4,-14.0762 -36.51953,0 -73.03906,0 -109.5586,0 l 0,1 0,1 z m 703.85746,0 c 0,62.2265 0,124.4531 0,186.6797 39.2063,0 78.4127,0 117.6191,0 -1.3786,-4.6468 3.4685,-15.5193 -4,-14.0762 -33.0963,0 -66.1927,0 -99.2891,0 0,-25.5085 0,-51.0169 0,-76.5254 31.1309,0 62.2618,0 93.3926,0 -1.3786,-4.6468 3.4685,-15.5192 -4,-14.0762 -29.7975,0 -59.595,0 -89.3926,0 0,-23.3086 0,-46.6171 0,-69.9257 33.0762,0 66.1524,0 99.2286,0 -1.3786,-4.6468 3.4684,-15.5193 -4,-14.0762 -36.5196,0 -73.0391,0 -109.5586,0 l 0,1 0,1 z m 184.8574,0 c 0.5485,5.4768 -2.7505,14.8013 6,12.0762 18.388,0 36.776,0 55.164,0 1e-4,58.2011 0,116.4023 0,174.6035 4.7597,-1.4344 15.943,3.5549 14.5821,-4 0,-56.8679 0,-113.7357 0,-170.6035 20.3874,0 40.7747,0 61.1621,0 -1.3786,-4.6468 3.4684,-15.5193 -4,-14.0762 -44.3027,0 -88.6055,0 -132.9082,0 l 0,1 0,1 z m 159.6348,0 c 0,62.2265 0,124.4531 0,186.6797 4.76,-1.4346 15.9446,3.5553 14.5839,-4 0,-28.7826 0,-57.5651 0,-86.3477 37.2676,0 74.5352,0 111.8028,0 0,30.1159 0,60.2318 0,90.3477 4.5305,-1.3301 14.8118,3.0904 14.582,-3 0,-61.8933 0,-123.7865 0,-185.6797 -4.7596,1.4344 -15.943,-3.555 -14.582,4 0,26.7519 0,53.5039 0,80.2558 -37.2676,0 -74.5352,0 -111.8028,0 0,-28.0852 0,-56.1705 0,-84.2558 -4.0902,1.1397 -13.8983,-2.3995 -14.5839,2 z m 185.8789,0 c 0,62.2265 0,124.4531 0,186.6797 39.2063,0 78.4127,0 117.6191,0 -1.3786,-4.6468 3.4684,-15.5193 -4,-14.0762 -33.0964,0 -66.1927,0 -99.2891,0 0,-25.5085 0,-51.0169 0,-76.5254 31.1309,0 62.2618,0 93.3926,0 -1.3786,-4.6468 3.4685,-15.5192 -4,-14.0762 -29.7975,0 -59.595,0 -89.3926,0 0,-23.3086 0,-46.6171 0,-69.9257 33.0762,0 66.1524,0 99.2286,0 -1.3786,-4.6468 3.4684,-15.5193 -4,-14.0762 -36.5196,0 -73.0391,0 -109.5586,0 l 0,1 0,1 z m 838.6796,0 c 0,62.2265 0,124.4531 0,186.6797 4.5312,-1.3302 14.8133,3.0906 14.584,-3 0,-61.8933 0,-123.7865 0,-185.6797 -4.0902,1.1397 -13.8983,-2.3995 -14.584,2 z m 228.5059,0 c 0,62.2265 0,124.4531 0,186.6797 4.7601,-1.4346 15.9447,3.5553 14.584,-4 0,-53.517 0,-107.0339 0,-160.5508 40.9765,54.8503 81.9532,109.7004 122.9297,164.5508 4.5945,-1.0306 13.5647,2.3147 14.875,-2 0,-62.2266 0,-124.4532 0,-186.6797 -4.7597,1.4344 -15.943,-3.555 -14.5821,4 0,53.444 0,106.888 0,160.332 -41.063,-54.7774 -82.1271,-109.554 -123.1894,-164.332 -4.0989,1.1409 -13.9245,-2.4012 -14.6172,2 z m -2452.0996,0 c 0,62.2259 0,124.4519 0,186.6778 4.76006,-1.4346 15.94465,3.5553 14.58398,-4 0,-28.8672 0,-57.7344 0,-86.6016 11.69401,0 23.38802,0 35.08203,0 18.10197,30.2007 36.20589,60.4002 54.30664,90.6016 5.61524,0 11.23047,0 16.84571,0 -18.29101,-30.4604 -36.58485,-60.9192 -54.87696,-91.3789 18.68176,-1.1741 38.07311,-10.9165 45.61133,-28.8809 5.52491,-14.8557 5.10128,-32.9034 -3.63867,-46.4629 -10.41934,-15.9601 -30.45392,-21.5199 -48.52734,-21.8398 -19.79199,-0.2808 -39.59187,-0.03 -59.38672,-0.1153 l 0,1 0,1 z m 533.34179,6.9981 c 33.51957,-0.8377 65.92954,21.4258 77.00977,53.1035 12.47754,32.8657 2.73272,73.5685 -25.64453,95.3906 -25.39174,20.4845 -63.14816,22.4169 -91.71094,7.3223 -29.33475,-15.0861 -45.44792,-49.5803 -41.44499,-81.8581 2.65209,-29.8302 22.08279,-57.8054 50.48991,-68.2669 10.01033,-3.9708 20.5573,-5.6979 31.30078,-5.6914 z m -482.16601,4.8222 c 16.00008,0.1487 35.46994,2.4357 44.86914,17.2344 7.11124,12.7728 6.17558,30.6671 -4.33008,41.3848 -13.45634,13.0072 -33.55135,11.9462 -50.74219,11.8203 -8.79622,0 -17.59244,0 -26.38867,0 0,-23.4798 0,-46.9596 0,-70.4395 12.19727,0 24.39453,0 36.5918,0 z m 1598.05272,0 c 16.3105,0.1144 36.3584,2.5975 45.4297,18.1563 7.482,14.5244 4.7383,35.3684 -9.8555,44.5176 -17.8974,11.2392 -39.8422,6.8127 -59.7675,7.7656 -5.4518,-0.6778 -15.2595,3.0003 -12.3887,-6 0,-21.4798 0,-42.9596 0,-64.4395 12.194,1e-4 24.388,0 36.582,0 z m 739.9844,109.5176 c -28.9883,0 -57.9766,0 -86.9649,0 14.7142,-34.5514 29.4284,-69.1028 44.1426,-103.6543 14.2741,34.5515 28.5482,69.1029 42.8223,103.6543 z"
       id="text4846"
       inkscape:connector-curvature="0" />
    <g
       transform="translate(1384.1813,1522.0842)"
       id="layer1-0"
       inkscape:label="Layer 1"
       style="stroke:url(#linearGradient4627)">
      <g
         id="g5055"
         style="stroke:url(#linearGradient4627);stroke-width:10;stroke-miterlimit:4;stroke-dasharray:none">
        <path
           style="fill:none;fill-opacity:1;stroke:url(#linearGradient4627);stroke-width:10;stroke-linecap:butt;stroke-linejoin:miter;stroke-miterlimit:4;stroke-dasharray:none;stroke-dashoffset:0;stroke-opacity:1"
           d="M 300.90421,17.604107 A 351.78196,351.78196 0 0 0 195.30503,34.243777 113.13589,113.13589 0 0 1 207.2693,84.78719 113.13589,113.13589 0 0 1 94.132382,197.9241 a 113.13589,113.13589 0 0 1 -79.38766,-32.66569 351.78196,351.78196 0 0 0 -65.621039,204.12622 351.78196,351.78196 0 0 0 0.259626,5.16892 113.13589,113.13589 0 0 1 19.615719,-1.73157 113.13589,113.13589 0 0 1 113.136913,113.13478 113.13589,113.13589 0 0 1 -58.67336,99.02268 351.78196,351.78196 0 0 0 277.441629,136.18785 351.78196,351.78196 0 0 0 73.63297,-7.96687 16.488177,16.488177 0 0 1 -0.42699,-3.63477 16.488177,16.488177 0 0 1 16.48733,-16.48733 16.488177,16.488177 0 0 1 15.80072,11.81835 A 351.78196,351.78196 0 0 0 652.68687,369.38463 351.78196,351.78196 0 0 0 300.90421,17.604107 Z"
           id="path4136"
           inkscape:connector-curvature="0" />
        <circle
           style="fill:none;fill-opacity:1;stroke:url(#linearGradient4627);stroke-width:10;stroke-linecap:butt;stroke-linejoin:miter;stroke-miterlimit:4;stroke-dasharray:none;stroke-dashoffset:0;stroke-opacity:1"
           id="circle4154"
           cx="300.90475"
           cy="721.16718"
           r="113.13589" />
        <path
           style="fill:#ff0000;fill-rule:evenodd;stroke:url(#linearGradient4627);stroke-width:10;stroke-linecap:butt;stroke-linejoin:miter;stroke-miterlimit:4;stroke-dasharray:none;stroke-opacity:1"
           d="m 300.90475,608.03126 0,-590.427153"
           id="path4156"
           inkscape:connector-curvature="0"
           sodipodi:nodetypes="cc" />
        <circle
           style="fill:none;fill-opacity:1;stroke:url(#linearGradient4627);stroke-width:10;stroke-linecap:butt;stroke-linejoin:miter;stroke-miterlimit:4;stroke-dasharray:none;stroke-dashoffset:0;stroke-opacity:1"
           id="circle4158"
           cx="390.59778"
           cy="709.56561"
           r="16.488176" />
        <circle
           style="fill:none;fill-opacity:1;stroke:url(#linearGradient4627);stroke-width:10;stroke-linecap:butt;stroke-linejoin:miter;stroke-miterlimit:4;stroke-dasharray:none;stroke-dashoffset:0;stroke-opacity:1"
           id="circle4171"
           cx="512.99921"
           cy="438.29886"
           r="113.13589" />
        <circle
           r="16.488176"
           cy="331.2554"
           cx="549.62469"
           id="circle4185"
           style="fill:#aa0000;fill-opacity:1;stroke:url(#linearGradient4627);stroke-width:10;stroke-linecap:butt;stroke-linejoin:miter;stroke-miterlimit:4;stroke-dasharray:none;stroke-dashoffset:0;stroke-opacity:1" />
        <path
           style="fill:#ff0000;fill-rule:evenodd;stroke:url(#linearGradient4627);stroke-width:10;stroke-linecap:butt;stroke-linejoin:miter;stroke-miterlimit:4;stroke-dasharray:none;stroke-opacity:1"
           d="M 554.88706,315.62953 599.4572,183.32882"
           id="path4189"
           inkscape:connector-curvature="0" />
        <circle
           style="fill:none;fill-opacity:1;stroke:url(#linearGradient4634);stroke-width:10;stroke-linecap:butt;stroke-linejoin:miter;stroke-miterlimit:4;stroke-dasharray:none;stroke-dashoffset:0;stroke-opacity:1"
           id="circle4197"
           cx="-245.68649"
           cy="381.82901"
           r="16.488176"
           inkscape:transform-center-x="71.750027"
           inkscape:transform-center-y="87.473677"
           transform="matrix(0.07931409,-0.99684968,0.99684968,0.07931409,0,0)" />
        <path
           style="fill:#ff0000;fill-rule:evenodd;stroke:url(#linearGradient4627);stroke-width:10;stroke-linecap:butt;stroke-linejoin:miter;stroke-miterlimit:4;stroke-dasharray:none;stroke-opacity:1"
           d="M 371.5965,262.44876 504.64127,100.25055"
           id="path4199"
           inkscape:connector-curvature="0"
           inkscape:transform-center-x="-5.2291352"
           inkscape:transform-center-y="-6.3735953" />
        <path
           style="fill:#ff0000;fill-rule:evenodd;stroke:url(#linearGradient4627);stroke-width:10;stroke-linecap:butt;stroke-linejoin:miter;stroke-miterlimit:4;stroke-dasharray:none;stroke-opacity:1"
           d="m 97.50701,197.8717 0,458.15324"
           id="path4219"
           inkscape:connector-curvature="0"
           sodipodi:nodetypes="cc" />
        <path
           style="fill:#ff0000;fill-rule:evenodd;stroke:url(#linearGradient4627);stroke-width:10;stroke-linecap:butt;stroke-linejoin:miter;stroke-miterlimit:4;stroke-dasharray:none;stroke-opacity:1"
           d="m 137.84491,189.13672 0,491.67687"
           id="path4221"
           inkscape:connector-curvature="0"
           sodipodi:nodetypes="cc" />
        <path
           style="fill:#ff0000;fill-rule:evenodd;stroke:url(#linearGradient4627);stroke-width:10;stroke-linecap:butt;stroke-linejoin:miter;stroke-miterlimit:4;stroke-dasharray:none;stroke-opacity:1"
           d="m 117.67597,195.44684 0,473.90829"
           id="path4223"
           inkscape:connector-curvature="0"
           sodipodi:nodetypes="cc" />
        <path
           style="fill:#ff0000;fill-rule:evenodd;stroke:url(#linearGradient4627);stroke-width:10;stroke-linecap:butt;stroke-linejoin:miter;stroke-miterlimit:4;stroke-dasharray:none;stroke-opacity:1"
           d="M 320.18362,205.72705 -27.762394,244.451"
           id="path4225"
           inkscape:connector-curvature="0"
           sodipodi:nodetypes="cc" />
        <circle
           r="113.13589"
           cy="721.16718"
           cx="300.90475"
           id="circle4242"
           style="fill:none;fill-opacity:1;stroke:url(#linearGradient4627);stroke-width:10;stroke-linecap:butt;stroke-linejoin:miter;stroke-miterlimit:4;stroke-dasharray:none;stroke-dashoffset:0;stroke-opacity:1" />
        <path
           style="fill:none;fill-rule:evenodd;stroke:url(#linearGradient4627);stroke-width:10;stroke-linecap:butt;stroke-linejoin:miter;stroke-opacity:1;stroke-miterlimit:4;stroke-dasharray:none;fill-opacity:1"
           d="M 403.1675,411.1562 -44.9605,305.6173"
           id="path4559"
           inkscape:connector-curvature="0" />
        <path
           inkscape:connector-curvature="0"
           id="path4561"
           d="M 399.86332,438.29886 -48.264681,332.75996"
           style="fill:none;fill-rule:evenodd;stroke:url(#linearGradient4627);stroke-width:10;stroke-linecap:butt;stroke-linejoin:miter;stroke-miterlimit:4;stroke-dasharray:none;stroke-opacity:1;fill-opacity:1" />
        <path
           style="fill:none;fill-rule:evenodd;stroke:url(#linearGradient4627);stroke-width:10;stroke-linecap:butt;stroke-linejoin:miter;stroke-miterlimit:4;stroke-dasharray:none;stroke-opacity:1;fill-opacity:1"
           d="M 413.57284,384.3162 -34.555156,278.7773"
           id="path4563"
           inkscape:connector-curvature="0" />
        <path
           style="fill:none;fill-opacity:1;stroke:url(#linearGradient4645);stroke-width:10.18812275;stroke-linecap:butt;stroke-linejoin:miter;stroke-miterlimit:4;stroke-dasharray:none;stroke-dashoffset:0;stroke-opacity:1"
           d="M 3080.2539 3192.416 A 113.04194 113.04194 0 0 0 2967.2129 3305.457 A 113.04194 113.04194 0 0 0 2996.7539 3381.4707 A 16.488176 16.488176 0 0 1 3009.9062 3376.4941 A 16.488176 16.488176 0 0 1 3025.0352 3394.2383 A 16.488176 16.488176 0 0 1 3022.166 3402.2734 A 113.04194 113.04194 0 0 0 3080.2539 3418.498 A 113.04194 113.04194 0 0 0 3193.2969 3305.457 A 113.04194 113.04194 0 0 0 3080.2539 3192.416 z "
           transform="translate(-2647.4589,-3117.7328)"
           id="path4603" />
      </g>
    </g>
    <path
       sodipodi:type="star"
       style="fill:none;fill-opacity:1;stroke:#ffff00;stroke-width:32.31274414;stroke-linecap:butt;stroke-linejoin:miter;stroke-miterlimit:4;stroke-dasharray:none;stroke-dashoffset:0;stroke-opacity:1"
       id="path4545"
       sodipodi:sides="5"
       sodipodi:cx="1730.491"
       sodipodi:cy="-1166.8"
       sodipodi:r1="228.53966"
       sodipodi:r2="87.184013"
       sodipodi:arg1="-1.5707963"
       sodipodi:arg2="-0.94247777"
       inkscape:flatsided="false"
       inkscape:rounded="0"
       inkscape:randomized="0"
       d="m 1730.491,-1395.3397 51.2454,158.0063 166.1087,-0.089 -134.4372,97.564 51.4153,157.95112 -134.3322,-97.70842 -134.3323,97.70842 51.4153,-157.95112 -134.4372,-97.564 166.1087,0.089 z"
       inkscape:transform-center-y="-21.823597" />
  </g>
</svg>
